<?xml version="1.0" encoding="UTF-8" ?>
<!DOCTYPE svg PUBLIC "-//W3C//DTD SVG 1.1//EN" "http://www.w3.org/Graphics/SVG/1.1/DTD/svg11.dtd">
<svg width="782pt" height="782pt" viewBox="0 0 782 782" version="1.1" xmlns="http://www.w3.org/2000/svg">
<g id="#f9f8f6ff">
<path fill="#f9f8f6" opacity="1.00" d=" M 358.52 23.84 C 419.51 18.40 481.88 28.34 537.99 52.96 C 609.81 84.17 671.21 138.81 710.34 206.67 C 732.08 244.14 747.21 285.46 754.49 328.18 C 762.80 376.40 761.49 426.27 750.43 473.95 C 733.67 547.39 693.27 614.97 637.29 665.27 C 607.44 692.25 573.08 714.25 536.09 730.10 C 450.42 767.19 350.35 769.85 262.95 736.91 C 194.41 711.47 133.92 665.04 91.38 605.61 C 66.81 571.45 48.24 533.03 36.55 492.62 C 16.18 421.50 17.66 344.18 41.36 274.05 C 68.67 191.77 126.33 120.15 200.56 75.48 C 248.35 46.49 302.82 28.61 358.52 23.84 M 407.93 97.02 C 410.07 97.28 412.22 97.52 414.38 97.75 C 415.17 90.81 415.86 83.86 416.74 76.93 C 418.39 77.13 420.06 77.33 421.72 77.52 C 426.14 85.31 430.24 93.28 434.75 101.01 C 437.27 100.91 439.81 100.89 442.34 100.86 C 437.24 93.14 432.23 85.36 427.10 77.66 C 432.49 77.18 439.26 75.21 440.63 69.18 C 442.63 63.07 437.37 57.56 431.82 56.06 C 425.61 54.43 419.11 54.36 412.78 53.48 C 411.15 67.99 409.53 82.51 407.93 97.02 M 340.74 56.16 C 342.17 70.70 343.63 85.24 345.04 99.78 C 353.56 98.60 362.98 99.45 370.37 94.24 C 374.78 91.59 376.92 85.36 374.17 80.80 C 371.76 76.90 367.07 75.49 362.79 74.84 C 365.35 73.15 368.27 71.60 369.73 68.76 C 372.21 64.39 370.28 58.08 365.46 56.28 C 357.54 53.10 348.92 55.77 340.74 56.16 M 285.33 67.74 C 283.36 84.17 281.78 100.65 280.02 117.10 C 281.17 116.68 282.33 116.27 283.48 115.84 C 283.73 111.62 284.16 107.42 284.45 103.20 C 290.68 101.09 296.97 99.18 303.25 97.20 C 305.98 100.48 308.77 103.71 311.50 107.01 C 313.82 106.33 316.13 105.60 318.44 104.86 C 309.04 94.11 299.62 83.40 290.21 72.67 C 288.67 70.94 287.32 69.00 285.33 67.74 M 495.95 70.97 C 485.59 82.59 475.11 94.10 464.78 105.75 C 465.63 106.01 467.32 106.54 468.17 106.81 C 470.93 103.56 473.75 100.37 476.46 97.08 C 482.74 98.96 488.87 101.27 495.16 103.11 C 495.60 107.42 495.84 111.76 496.21 116.08 C 498.47 116.84 500.73 117.60 502.99 118.38 C 501.53 101.94 500.03 85.50 498.32 69.09 C 497.45 69.60 496.60 70.18 495.95 70.97 M 549.47 92.03 C 542.27 104.71 534.83 117.25 527.52 129.87 C 529.36 130.93 531.20 132.01 533.01 133.14 C 536.73 127.23 540.09 121.11 543.62 115.09 C 545.14 115.93 546.65 116.81 548.14 117.74 C 548.81 126.61 549.55 135.47 550.42 144.33 C 552.78 145.28 555.12 146.27 557.46 147.28 C 555.94 138.15 554.47 129.02 552.90 119.90 C 556.18 120.85 559.62 121.76 563.05 121.09 C 568.31 120.18 572.21 114.21 570.57 109.04 C 569.29 104.66 565.73 101.38 561.89 99.15 C 557.74 96.79 553.69 94.26 549.47 92.03 M 187.86 118.28 C 190.72 130.09 194.38 141.73 196.89 153.62 C 186.14 147.86 175.20 142.47 164.34 136.94 C 162.75 138.22 161.15 139.49 159.55 140.75 C 168.03 152.70 176.43 164.69 184.90 176.64 C 185.47 176.18 186.59 175.27 187.15 174.82 C 180.14 164.86 172.87 155.09 165.99 145.05 C 178.13 151.13 190.01 157.75 202.30 163.50 C 199.24 149.83 195.27 136.37 191.99 122.75 C 200.53 131.99 208.60 141.68 216.94 151.11 C 218.74 149.77 220.51 148.39 222.26 146.98 C 212.62 135.97 202.84 125.08 193.12 114.13 C 191.38 115.53 189.63 116.91 187.86 118.28 M 365.62 115.87 C 331.55 118.96 298.09 128.43 267.49 143.73 C 201.21 176.67 149.22 237.27 127.37 308.05 C 119.04 334.82 114.51 362.88 114.95 390.95 C 114.53 435.52 125.95 479.96 146.70 519.33 C 164.38 552.59 188.82 582.26 218.24 605.80 C 249.89 631.43 287.41 649.69 327.02 659.07 C 374.13 670.27 424.18 668.73 470.50 654.63 C 544.79 632.45 608.15 577.07 640.68 506.77 C 656.61 472.45 665.44 434.85 666.20 397.01 C 667.25 351.22 656.84 305.15 635.73 264.47 C 618.67 231.87 595.30 202.54 567.03 178.98 C 530.92 148.66 486.93 127.80 440.53 119.32 C 415.88 114.65 390.59 113.95 365.62 115.87 M 125.91 176.76 C 137.17 186.11 148.13 195.82 159.50 205.04 C 160.73 203.47 162.00 201.92 163.28 200.38 C 152.10 190.99 141.01 181.50 129.84 172.09 C 128.52 173.63 127.20 175.19 125.91 176.76 M 604.82 186.57 C 605.52 187.51 606.22 188.44 606.95 189.38 C 611.03 188.01 615.13 186.70 619.21 185.34 C 623.51 190.30 627.73 195.32 632.01 200.29 C 630.08 204.15 628.09 207.98 626.19 211.84 C 627.73 213.60 629.23 215.39 630.70 217.22 C 638.25 202.54 645.26 187.57 652.42 172.70 C 651.83 172.76 650.66 172.87 650.07 172.93 C 634.98 177.43 619.92 182.07 604.82 186.57 M 98.21 214.85 C 103.79 218.29 109.61 221.34 115.13 224.88 C 111.67 230.56 108.42 236.37 105.04 242.10 C 99.38 238.82 93.74 235.49 88.07 232.24 C 87.00 234.09 85.93 235.95 84.90 237.82 C 97.54 245.14 110.14 252.52 122.76 259.86 C 123.83 258.01 124.91 256.17 125.98 254.32 C 119.75 250.61 113.41 247.08 107.21 243.31 C 110.66 237.59 113.92 231.78 117.32 226.04 C 123.59 229.66 129.83 233.33 136.10 236.96 C 137.18 235.10 138.25 233.25 139.31 231.39 C 126.68 224.06 114.05 216.74 101.48 209.32 C 100.38 211.16 99.30 213.01 98.21 214.85 M 645.85 239.99 C 650.25 247.40 653.15 256.38 660.80 261.19 C 664.94 264.17 671.42 263.79 674.58 259.56 C 677.41 255.69 676.84 250.55 675.52 246.22 C 677.93 248.26 680.61 250.32 683.86 250.65 C 688.81 251.31 693.99 247.18 693.85 242.05 C 693.79 233.45 687.92 226.54 684.42 219.09 C 671.52 225.97 658.70 233.02 645.85 239.99 M 672.80 297.76 C 673.43 299.69 674.07 301.61 674.72 303.55 C 688.51 298.94 702.26 294.16 716.09 289.65 C 715.66 287.62 715.03 285.64 714.23 283.73 C 700.45 288.50 686.61 293.08 672.80 297.76 M 67.00 288.58 C 65.29 288.78 63.45 288.74 61.96 289.71 C 74.24 300.69 86.55 311.64 98.83 322.62 C 99.20 321.48 99.57 320.35 99.94 319.21 C 96.67 316.40 93.34 313.67 90.12 310.80 C 92.18 304.61 94.20 298.40 96.20 292.19 C 100.50 291.78 104.81 291.49 109.11 291.14 C 109.85 288.86 110.60 286.59 111.35 284.33 C 96.56 285.64 81.79 287.23 67.00 288.58 M 683.75 335.27 C 685.59 344.99 685.11 356.12 692.12 363.95 C 701.82 375.14 722.71 370.40 727.41 356.59 C 731.16 347.64 728.27 337.99 727.11 328.84 C 712.66 331.01 698.20 333.14 683.75 335.27 M 51.02 338.37 C 50.01 346.94 48.91 355.49 47.85 364.05 C 62.35 365.85 76.86 367.66 91.36 369.46 C 91.62 367.33 91.88 365.21 92.14 363.08 C 84.96 362.21 77.78 361.28 70.59 360.42 C 71.16 355.77 71.73 351.13 72.33 346.48 C 71.70 346.41 70.42 346.27 69.78 346.20 C 69.28 350.85 68.66 355.48 68.09 360.12 C 62.75 359.42 57.40 358.78 52.05 358.11 C 50.67 351.43 53.78 345.18 55.45 338.90 C 53.97 338.71 52.50 338.54 51.02 338.37 M 691.10 428.21 C 683.20 430.02 681.19 441.74 687.80 446.24 C 693.69 450.91 703.87 446.77 704.03 439.01 C 705.08 432.07 697.71 426.15 691.10 428.21 M 84.41 438.55 C 76.71 440.62 74.89 452.10 81.51 456.51 C 87.44 461.41 97.81 456.74 97.61 448.93 C 98.62 441.96 90.89 436.19 84.41 438.55 M 109.07 566.46 C 112.12 571.07 115.03 575.76 118.08 580.36 C 118.99 579.96 119.91 579.57 120.83 579.18 C 118.16 575.90 114.48 573.20 113.48 568.87 C 121.25 563.92 128.97 558.89 136.73 553.93 C 135.92 552.69 135.12 551.44 134.32 550.21 C 125.88 555.60 117.46 561.01 109.07 566.46 M 647.42 554.54 C 642.46 557.37 640.38 563.08 637.06 567.45 C 645.41 572.99 653.79 578.48 662.15 583.99 C 662.92 582.71 663.74 581.45 664.53 580.17 C 660.48 577.57 656.39 575.02 652.50 572.20 C 653.56 571.17 654.18 569.03 656.05 569.43 C 661.63 569.23 667.23 569.10 672.82 568.92 C 673.59 567.34 674.34 565.74 675.14 564.18 C 668.87 564.88 662.60 565.51 656.34 566.26 C 657.15 563.37 658.32 560.07 656.77 557.21 C 655.07 553.93 650.61 552.54 647.42 554.54 M 131.88 598.99 C 135.77 603.56 139.44 608.34 143.55 612.73 C 144.18 612.35 145.43 611.59 146.06 611.21 C 142.70 607.89 139.29 604.63 135.95 601.30 C 139.34 598.49 142.69 595.64 146.10 592.85 C 148.27 595.45 150.44 598.05 152.64 600.63 C 152.93 600.31 153.52 599.68 153.82 599.37 C 151.68 596.82 149.55 594.27 147.41 591.74 C 150.24 589.34 153.10 586.98 155.95 584.60 C 159.75 587.15 161.57 591.42 163.87 595.18 C 164.54 594.83 165.88 594.11 166.55 593.75 C 162.72 589.07 158.79 584.47 154.95 579.80 C 147.15 586.05 139.58 592.61 131.88 598.99 M 624.25 584.12 C 620.18 588.63 616.24 593.25 612.22 597.80 C 619.76 604.38 627.29 610.98 634.82 617.57 C 638.74 613.04 642.71 608.54 646.66 604.02 C 646.18 603.45 645.24 602.29 644.77 601.72 C 641.85 605.41 639.25 609.34 636.49 613.14 C 633.13 610.35 629.97 607.32 626.55 604.60 C 628.39 602.11 630.65 599.96 632.55 597.52 C 633.95 596.11 631.35 595.55 630.87 596.83 C 628.96 598.98 627.13 601.20 625.15 603.30 C 622.41 600.84 619.64 598.42 616.86 596.01 C 618.75 591.81 622.75 589.36 626.17 586.55 C 625.52 585.73 624.88 584.92 624.25 584.12 M 164.70 629.92 C 165.83 637.51 172.21 643.11 178.90 646.09 C 181.54 643.08 184.31 640.17 186.92 637.13 C 185.82 636.16 184.72 635.21 183.63 634.26 C 181.07 637.12 178.48 639.95 175.91 642.81 C 171.50 640.07 167.52 635.41 168.29 629.88 C 169.54 621.99 177.63 614.77 185.87 616.70 C 190.83 617.52 192.71 622.79 194.94 626.61 C 195.53 626.11 196.71 625.13 197.30 624.64 C 194.24 619.29 189.24 614.70 182.98 613.71 C 173.64 611.60 163.46 620.29 164.70 629.92 M 593.56 616.17 C 596.30 619.77 599.60 622.92 602.22 626.62 C 598.71 629.45 595.37 632.47 591.94 635.39 C 589.00 632.03 586.10 628.63 583.16 625.27 C 582.05 626.20 580.95 627.16 579.85 628.10 C 586.38 635.72 592.90 643.35 599.57 650.84 C 600.63 649.86 601.69 648.89 602.77 647.93 C 599.53 644.20 596.31 640.45 593.08 636.72 C 596.57 633.74 599.97 630.65 603.53 627.76 C 606.67 631.56 609.96 635.24 613.16 638.98 C 614.27 638.01 615.39 637.05 616.52 636.09 C 609.95 628.55 603.44 620.97 596.90 613.42 C 595.78 614.33 594.67 615.25 593.56 616.17 M 550.20 651.24 C 545.06 659.93 551.64 673.25 561.93 673.67 C 568.62 674.02 574.77 670.12 579.16 665.38 C 580.60 664.44 579.58 663.11 578.94 662.11 C 575.84 668.84 566.73 673.49 559.97 669.16 C 553.97 665.10 549.73 656.46 553.61 649.62 C 555.88 645.19 561.29 644.39 565.69 643.51 C 565.33 642.79 564.60 641.36 564.23 640.65 C 558.48 642.33 552.94 645.73 550.20 651.24 M 195.26 660.72 C 195.85 660.93 197.03 661.34 197.62 661.55 C 200.09 660.07 202.35 658.29 204.85 656.87 C 208.49 659.41 212.20 661.84 215.90 664.30 C 215.35 667.20 214.77 670.10 214.19 673.01 C 215.56 673.91 216.93 674.82 218.30 675.73 C 220.22 664.56 222.44 653.43 224.20 642.23 C 214.42 648.16 204.68 654.23 195.26 660.72 M 237.86 686.65 C 242.82 689.02 247.70 691.55 252.67 693.92 C 253.24 693.08 253.82 692.24 254.40 691.42 C 250.42 690.21 246.13 689.45 242.88 686.66 C 246.58 678.12 251.30 670.05 255.02 661.52 C 253.67 660.95 252.37 660.30 251.04 659.75 C 246.78 668.78 242.02 677.57 237.86 686.65 M 507.01 671.23 C 511.20 680.35 515.18 689.58 519.63 698.59 C 520.90 697.95 522.18 697.32 523.47 696.71 C 521.53 692.34 519.52 688.01 517.52 683.68 C 518.63 683.19 519.75 682.72 520.87 682.26 C 525.97 685.45 531.29 688.27 536.37 691.48 C 537.93 690.57 539.46 689.63 540.96 688.64 C 535.27 686.04 529.75 683.10 524.02 680.60 C 525.92 678.66 528.26 676.82 528.98 674.07 C 530.00 670.25 526.97 666.03 523.00 665.85 C 517.15 665.39 512.27 669.30 507.01 671.23 M 476.24 680.74 C 475.72 683.51 475.16 686.51 476.70 689.09 L 477.66 687.95 C 480.52 692.05 483.82 695.82 486.88 699.76 C 483.06 700.92 479.22 702.03 475.39 703.17 C 475.80 698.56 476.29 693.96 476.87 689.38 C 476.16 689.34 474.86 688.92 474.94 690.09 C 474.06 698.24 472.90 706.35 471.95 714.49 C 472.54 714.30 473.74 713.93 474.33 713.74 C 474.58 710.83 474.88 707.93 475.18 705.04 C 479.48 703.76 483.78 702.48 488.08 701.22 C 489.91 703.43 491.73 705.65 493.43 707.97 C 495.11 707.60 496.77 707.17 498.43 706.72 C 491.00 698.09 483.96 689.10 476.24 680.74 M 301.15 711.69 C 302.58 712.12 304.03 712.56 305.48 712.99 C 306.53 708.48 307.96 704.05 308.68 699.47 C 309.85 699.04 311.02 698.60 312.15 698.06 L 309.32 697.85 C 310.22 693.92 311.20 690.02 312.22 686.12 C 316.09 685.98 321.53 687.10 321.68 691.92 C 322.59 696.94 316.97 700.54 312.50 698.45 C 312.06 699.86 312.93 701.15 313.35 702.47 C 315.22 707.28 317.09 712.09 318.91 716.92 C 320.65 717.14 322.39 717.37 324.13 717.60 C 321.52 711.85 318.70 706.21 316.01 700.50 C 318.88 700.40 322.09 700.32 324.34 698.26 C 327.06 695.78 327.22 691.08 324.44 688.58 C 320.21 684.46 313.86 684.54 308.56 682.71 C 305.89 692.32 303.81 702.08 301.15 711.69 M 428.37 691.98 C 429.84 701.85 431.43 711.70 432.86 721.57 C 438.82 720.80 444.75 719.80 450.70 718.88 C 450.70 718.15 450.70 716.67 450.70 715.93 C 446.08 716.90 441.55 718.21 436.99 719.36 C 436.34 714.99 435.65 710.63 435.00 706.27 C 438.30 705.76 441.61 705.25 444.92 704.76 C 444.88 704.34 444.80 703.51 444.76 703.09 C 441.41 703.52 438.08 704.04 434.75 704.58 C 434.43 700.89 433.04 697.07 433.46 693.47 C 437.46 691.50 442.04 692.38 446.32 692.30 C 446.33 691.53 446.34 689.99 446.35 689.22 C 440.35 690.12 434.36 691.06 428.37 691.98 M 350.15 691.49 C 349.07 701.41 348.04 711.35 346.91 721.27 C 352.87 722.01 358.85 722.59 364.82 723.25 C 365.08 722.26 365.34 721.26 365.62 720.28 C 360.90 720.24 356.19 720.19 351.48 720.17 C 351.95 715.78 352.43 711.40 352.91 707.02 C 356.34 707.39 359.78 707.80 363.23 708.04 C 363.11 707.64 362.87 706.82 362.75 706.41 C 359.53 705.86 356.27 705.72 353.04 705.23 C 353.53 701.58 353.89 697.92 354.30 694.27 C 358.86 693.39 363.17 695.31 367.49 696.44 C 367.68 695.42 367.87 694.40 368.06 693.40 C 362.08 692.80 356.12 692.11 350.15 691.49 M 392.79 694.76 C 389.37 696.53 387.67 701.09 389.71 704.52 C 392.53 709.26 398.71 709.87 402.32 713.75 C 404.82 716.28 403.73 721.05 400.47 722.39 C 396.61 724.06 392.50 722.38 388.85 721.02 C 388.94 721.53 389.14 722.54 389.24 723.04 C 393.52 724.69 398.47 725.30 402.90 723.84 C 407.16 722.46 409.77 717.12 407.56 713.05 C 404.52 707.66 397.36 707.03 393.74 702.22 C 392.19 700.15 392.53 696.76 394.94 695.51 C 398.62 695.37 402.16 696.64 405.59 697.83 C 405.70 697.09 405.92 695.59 406.03 694.84 C 401.76 693.67 396.95 692.70 392.79 694.76 Z" />
<path fill="#f9f8f6" opacity="1.00" d=" M 347.50 59.12 C 351.43 57.85 355.99 55.94 359.87 58.41 C 365.33 61.01 365.56 69.43 360.81 72.83 C 357.37 75.15 353.04 75.06 349.08 75.48 C 348.60 70.03 347.98 64.58 347.50 59.12 Z" />
<path fill="#f9f8f6" opacity="1.00" d=" M 418.82 57.71 C 422.57 57.59 426.87 56.48 430.16 58.84 C 435.23 62.16 435.41 70.92 430.17 74.16 C 426.12 76.49 421.29 75.41 416.92 75.00 C 417.56 69.24 418.21 63.48 418.82 57.71 Z" />
<path fill="#f9f8f6" opacity="1.00" d=" M 286.59 77.25 C 291.32 83.24 296.78 88.80 301.01 95.08 C 295.69 97.19 290.09 98.56 284.68 100.42 C 285.29 92.69 286.04 84.98 286.59 77.25 Z" />
<path fill="#f9f8f6" opacity="1.00" d=" M 349.31 77.40 C 354.19 76.85 359.66 76.07 363.92 79.14 C 368.27 81.71 369.70 88.35 366.16 92.15 C 362.46 96.40 356.38 96.65 351.17 96.31 C 350.56 90.01 349.90 83.71 349.31 77.40 Z" />
<path fill="#f9f8f6" opacity="1.00" d=" M 478.29 94.97 C 483.36 89.22 488.13 83.19 493.43 77.64 C 493.97 85.27 494.52 92.90 494.97 100.53 C 489.44 98.59 483.84 96.85 478.29 94.97 Z" />
<path fill="#f9f8f6" opacity="1.00" d=" M 544.65 113.24 C 547.70 108.31 550.46 103.21 553.50 98.27 C 556.89 99.77 561.19 100.46 563.27 103.87 C 566.65 108.96 563.23 117.12 557.08 117.95 C 552.44 118.38 548.41 115.56 544.65 113.24 Z" />
<path fill="#f9f8f6" opacity="1.00" d=" M 362.54 120.79 C 422.82 114.48 485.10 129.06 536.10 161.87 C 597.89 200.95 642.80 265.97 656.63 337.86 C 665.99 384.98 662.59 434.58 646.60 479.89 C 624.36 544.15 576.75 598.99 516.57 630.53 C 480.24 650.09 439.19 660.49 398.01 661.74 C 355.52 662.89 312.76 653.94 274.41 635.60 C 241.95 620.11 212.52 598.20 188.61 571.31 C 158.19 537.32 136.34 495.61 126.24 451.09 C 116.38 408.00 117.21 362.49 128.74 319.81 C 138.64 283.24 156.35 248.81 180.28 219.42 C 202.31 192.51 229.43 169.71 259.97 153.02 C 291.55 135.58 326.65 124.50 362.54 120.79 M 370.59 128.84 C 364.74 129.33 358.91 129.97 353.10 130.80 C 289.68 139.69 230.21 173.10 189.27 222.29 C 162.15 254.69 142.90 293.70 134.00 335.03 C 128.33 360.25 127.20 386.31 128.99 412.04 C 132.89 462.81 152.36 512.11 183.78 552.14 C 205.77 580.31 233.57 603.88 264.84 621.16 C 304.15 642.74 349.15 654.03 394.01 653.07 C 446.30 653.00 498.15 635.80 540.90 605.86 C 572.00 584.00 598.40 555.45 617.54 522.60 C 637.24 488.94 649.10 450.77 652.23 411.91 C 655.72 368.25 648.29 323.70 630.30 283.73 C 613.73 246.70 588.37 213.66 557.08 187.88 C 525.71 161.98 488.21 143.64 448.56 134.60 C 423.07 128.56 396.67 127.30 370.59 128.84 Z" />
<path fill="#f9f8f6" opacity="1.00" d=" M 372.08 133.23 C 423.00 129.38 474.95 141.26 519.14 166.83 C 552.73 186.20 581.90 213.18 603.77 245.19 C 625.08 276.17 639.45 311.90 645.41 349.02 C 653.10 395.54 647.62 444.14 629.77 487.78 C 614.77 524.63 591.03 557.86 561.16 584.13 C 531.66 610.29 496.07 629.49 458.03 639.85 C 413.11 652.09 364.84 651.77 320.08 638.96 C 246.51 618.63 184.08 563.18 153.80 493.29 C 140.10 461.73 132.81 427.41 132.58 393.01 C 132.04 350.74 142.24 308.40 161.94 271.01 C 192.79 211.90 247.35 165.60 310.87 145.22 C 330.71 138.84 351.29 134.74 372.08 133.23 M 293.09 165.14 C 258.89 179.92 227.99 202.38 203.63 230.59 C 178.46 259.64 160.23 294.65 150.83 331.92 C 141.00 371.10 141.05 412.70 150.75 451.91 C 160.25 490.43 179.52 526.38 205.83 556.02 C 231.69 585.15 264.52 608.01 300.78 622.23 C 317.00 628.23 333.65 633.44 350.85 635.65 C 355.55 632.09 361.08 629.68 366.89 628.65 C 369.78 624.40 374.06 621.21 378.99 619.72 C 379.05 525.14 378.99 430.56 379.02 335.99 C 379.07 334.79 378.83 333.67 378.30 332.62 C 375.82 327.46 373.24 322.34 370.82 317.15 C 335.87 316.66 300.91 315.89 266.01 314.04 C 264.75 314.07 263.50 314.15 262.26 314.28 C 260.30 313.33 258.07 313.53 255.97 313.37 C 242.20 312.67 228.46 311.49 214.73 310.25 C 213.82 316.04 208.93 321.04 202.95 321.35 C 195.58 322.28 188.78 315.34 189.42 308.02 C 189.60 300.02 198.64 294.12 206.07 296.94 C 210.72 298.38 213.81 302.71 214.69 307.36 C 267.75 302.68 321.01 300.84 374.25 300.47 C 379.72 289.01 385.40 277.66 390.77 266.17 C 396.56 277.51 401.97 289.05 407.56 300.50 C 461.89 300.93 516.28 302.58 570.39 307.75 C 571.02 303.20 573.90 298.93 578.25 297.22 C 584.76 294.31 593.25 298.16 595.12 305.11 C 597.84 312.52 591.74 321.23 583.91 321.39 C 577.26 322.13 571.11 316.59 570.51 310.06 C 553.42 311.44 536.34 313.15 519.19 313.80 C 540.30 365.79 561.85 417.62 581.87 470.04 C 565.15 432.27 549.11 394.20 533.10 356.12 C 528.18 344.70 523.83 333.02 518.57 321.75 C 498.32 371.08 477.28 420.08 456.17 469.04 C 459.82 457.43 464.91 446.30 469.18 434.91 C 485.31 394.47 501.65 354.12 518.28 313.89 C 482.56 315.77 446.78 316.75 411.01 317.11 C 408.52 322.26 406.02 327.39 403.53 332.54 C 402.74 333.88 402.75 335.45 402.76 336.96 C 402.82 431.22 402.72 525.47 402.82 619.72 C 407.67 621.15 411.72 624.33 414.69 628.36 C 420.46 629.88 426.21 631.96 431.02 635.66 C 487.39 627.14 539.96 597.27 577.37 554.40 C 601.25 527.24 618.97 494.71 628.94 459.96 C 641.85 414.80 641.50 365.95 627.96 320.98 C 617.60 286.22 599.24 253.94 574.99 226.99 C 548.37 197.36 514.46 174.33 477.09 160.53 C 418.17 138.50 350.84 140.18 293.09 165.14 Z" />
<path fill="#f9f8f6" opacity="1.00" d=" M 621.85 184.43 C 629.21 182.10 636.54 179.66 643.90 177.29 C 640.36 184.16 636.79 191.01 633.24 197.87 C 629.46 193.37 625.56 188.98 621.85 184.43 Z" />
<path fill="#f9f8f6" opacity="1.00" d=" M 669.80 234.29 C 674.60 231.67 679.41 229.07 684.21 226.44 C 687.12 229.65 690.82 233.38 689.64 238.16 C 688.97 243.84 681.72 246.92 676.95 244.09 C 673.36 241.89 671.81 237.77 669.80 234.29 Z" />
<path fill="#f9f8f6" opacity="1.00" d=" M 651.37 244.49 C 656.79 241.12 662.55 238.34 668.11 235.20 C 670.47 239.38 673.29 243.93 672.26 248.95 C 671.77 254.34 665.62 258.61 660.51 256.27 C 655.49 254.34 653.28 249.09 651.37 244.49 Z" />
<path fill="#f9f8f6" opacity="1.00" d=" M 70.34 294.01 C 78.07 293.53 85.79 292.92 93.52 292.39 C 91.69 297.79 90.04 303.25 88.18 308.64 C 88.04 308.67 87.76 308.72 87.62 308.75 C 81.82 303.89 76.13 298.89 70.34 294.01 Z" />
<path fill="#f9f8f6" opacity="1.00" d=" M 687.49 341.23 C 699.79 339.52 712.07 337.65 724.35 335.80 C 725.71 339.05 726.95 342.45 727.11 346.01 C 726.25 353.55 720.43 360.16 713.11 362.11 C 706.95 363.74 699.64 363.84 694.42 359.69 C 688.89 355.38 687.17 347.91 687.49 341.23 Z" />
<path fill="#f9f8f6" opacity="1.00" d=" M 644.96 559.01 C 648.45 556.27 654.35 558.57 655.07 562.94 C 655.39 566.28 653.15 569.05 651.39 571.65 C 648.14 569.40 644.81 567.26 641.50 565.10 C 642.50 563.01 643.16 560.58 644.96 559.01 Z" />
<path fill="#f9f8f6" opacity="1.00" d=" M 206.28 655.87 C 210.59 652.78 215.09 649.96 219.48 646.99 C 218.38 652.13 217.38 657.30 216.25 662.44 C 212.91 660.28 209.66 657.97 206.28 655.87 Z" />
<path fill="#f9f8f6" opacity="1.00" d=" M 517.37 668.46 C 521.93 667.21 526.37 672.48 524.72 676.79 C 523.32 679.92 519.85 681.10 516.99 682.47 C 515.37 678.78 513.49 675.20 512.09 671.42 C 513.82 670.38 515.47 669.17 517.37 668.46 Z" />
</g>
<g id="#100f0dff">
<path fill="#100f0d" opacity="1.00" d=" M 366.53 16.79 C 419.59 13.32 473.39 21.22 523.13 40.08 C 558.44 53.57 591.78 72.28 621.54 95.60 C 687.31 146.60 735.15 220.24 755.03 301.05 C 766.63 347.95 769.01 397.08 762.18 444.90 C 750.66 526.95 710.45 604.42 650.62 661.63 C 582.29 727.57 488.13 766.52 393.00 766.05 C 343.90 766.84 294.91 756.71 249.40 738.52 C 178.85 709.65 117.59 658.74 76.21 594.72 C 54.18 560.71 37.68 523.11 27.60 483.87 C 17.44 444.17 14.07 402.82 17.09 361.98 C 20.24 320.41 30.54 279.42 47.22 241.21 C 65.40 199.62 91.24 161.41 123.00 128.98 C 172.60 77.90 237.14 41.58 306.52 25.60 C 326.24 21.07 346.33 18.06 366.53 16.79 M 358.52 23.84 C 302.82 28.61 248.35 46.49 200.56 75.48 C 126.33 120.15 68.67 191.77 41.36 274.05 C 17.66 344.18 16.18 421.50 36.55 492.62 C 48.24 533.03 66.81 571.45 91.38 605.61 C 133.92 665.04 194.41 711.47 262.95 736.91 C 350.35 769.85 450.42 767.19 536.09 730.10 C 573.08 714.25 607.44 692.25 637.29 665.27 C 693.27 614.97 733.67 547.39 750.43 473.95 C 761.49 426.27 762.80 376.40 754.49 328.18 C 747.21 285.46 732.08 244.14 710.34 206.67 C 671.21 138.81 609.81 84.17 537.99 52.96 C 481.88 28.34 419.51 18.40 358.52 23.84 Z" />
</g>
<g id="#010101ff">
<path fill="#010101" opacity="1.00" d=" M 407.93 97.02 C 409.53 82.51 411.15 67.99 412.78 53.48 C 419.11 54.36 425.61 54.43 431.82 56.06 C 437.37 57.56 442.63 63.07 440.63 69.18 C 439.26 75.21 432.49 77.18 427.10 77.66 C 432.23 85.36 437.24 93.14 442.34 100.86 C 439.81 100.89 437.27 100.91 434.75 101.01 C 430.24 93.28 426.14 85.31 421.72 77.52 C 420.06 77.33 418.39 77.13 416.74 76.93 C 415.86 83.86 415.17 90.81 414.38 97.75 C 412.22 97.52 410.07 97.28 407.93 97.02 M 418.82 57.71 C 418.21 63.48 417.56 69.24 416.92 75.00 C 421.29 75.41 426.12 76.49 430.17 74.16 C 435.41 70.92 435.23 62.16 430.16 58.84 C 426.87 56.48 422.57 57.59 418.82 57.71 Z" />
<path fill="#010101" opacity="1.00" d=" M 340.74 56.16 C 348.92 55.77 357.54 53.10 365.46 56.28 C 370.28 58.08 372.21 64.39 369.73 68.76 C 368.27 71.60 365.35 73.15 362.79 74.84 C 367.07 75.49 371.76 76.90 374.17 80.80 C 376.92 85.36 374.78 91.59 370.37 94.24 C 362.98 99.45 353.56 98.60 345.04 99.78 C 343.63 85.24 342.17 70.70 340.74 56.16 M 347.50 59.12 C 347.98 64.58 348.60 70.03 349.08 75.48 C 353.04 75.06 357.37 75.15 360.81 72.83 C 365.56 69.43 365.33 61.01 359.87 58.41 C 355.99 55.94 351.43 57.85 347.50 59.12 M 349.31 77.40 C 349.90 83.71 350.56 90.01 351.17 96.31 C 356.38 96.65 362.46 96.40 366.16 92.15 C 369.70 88.35 368.27 81.71 363.92 79.14 C 359.66 76.07 354.19 76.85 349.31 77.40 Z" />
<path fill="#010101" opacity="1.00" d=" M 672.80 297.76 C 686.61 293.08 700.45 288.50 714.23 283.73 C 715.03 285.64 715.66 287.62 716.09 289.65 C 702.26 294.16 688.51 298.94 674.72 303.55 C 674.07 301.61 673.43 299.69 672.80 297.76 Z" />
</g>
<g id="#020202ff">
<path fill="#020202" opacity="1.00" d=" M 285.33 67.74 C 287.32 69.00 288.67 70.94 290.21 72.67 C 299.62 83.40 309.04 94.11 318.44 104.86 C 316.13 105.60 313.82 106.33 311.50 107.01 C 308.77 103.71 305.98 100.48 303.25 97.20 C 296.97 99.18 290.68 101.09 284.45 103.20 C 284.16 107.42 283.73 111.62 283.48 115.84 C 282.33 116.27 281.17 116.68 280.02 117.10 C 281.78 100.65 283.36 84.17 285.33 67.74 M 286.59 77.25 C 286.04 84.98 285.29 92.69 284.68 100.42 C 290.09 98.56 295.69 97.19 301.01 95.08 C 296.78 88.80 291.32 83.24 286.59 77.25 Z" />
</g>
<g id="#000000ff">
<path fill="#000000" opacity="1.00" d=" M 495.95 70.97 C 496.60 70.18 497.45 69.60 498.32 69.09 C 500.03 85.50 501.53 101.94 502.99 118.38 C 500.73 117.60 498.47 116.84 496.21 116.08 C 495.84 111.76 495.60 107.42 495.16 103.11 C 488.87 101.27 482.74 98.96 476.46 97.08 C 473.75 100.37 470.93 103.56 468.17 106.81 C 467.32 106.54 465.63 106.01 464.78 105.75 C 475.11 94.10 485.59 82.59 495.95 70.97 M 478.29 94.97 C 483.84 96.85 489.44 98.59 494.97 100.53 C 494.52 92.90 493.97 85.27 493.43 77.64 C 488.13 83.19 483.36 89.22 478.29 94.97 Z" />
</g>
<g id="#020101ff">
<path fill="#020101" opacity="1.00" d=" M 549.47 92.03 C 553.69 94.26 557.74 96.79 561.89 99.15 C 565.73 101.38 569.29 104.66 570.57 109.04 C 572.21 114.21 568.31 120.18 563.05 121.09 C 559.62 121.76 556.18 120.85 552.90 119.90 C 554.47 129.02 555.94 138.15 557.46 147.28 C 555.12 146.27 552.78 145.28 550.42 144.33 C 549.55 135.47 548.81 126.61 548.14 117.74 C 546.65 116.81 545.14 115.93 543.62 115.09 C 540.09 121.11 536.73 127.23 533.01 133.14 C 531.20 132.01 529.36 130.93 527.52 129.87 C 534.83 117.25 542.27 104.71 549.47 92.03 M 544.65 113.24 C 548.41 115.56 552.44 118.38 557.08 117.95 C 563.23 117.12 566.65 108.96 563.27 103.87 C 561.19 100.46 556.89 99.77 553.50 98.27 C 550.46 103.21 547.70 108.31 544.65 113.24 Z" />
<path fill="#020101" opacity="1.00" d=" M 187.86 118.28 C 189.63 116.91 191.38 115.53 193.12 114.13 C 202.84 125.08 212.62 135.97 222.26 146.98 C 220.51 148.39 218.74 149.77 216.94 151.11 C 208.60 141.68 200.53 131.99 191.99 122.75 C 195.27 136.37 199.24 149.83 202.30 163.50 C 190.01 157.75 178.13 151.13 165.99 145.05 C 172.87 155.09 180.14 164.86 187.15 174.82 C 186.59 175.27 185.47 176.18 184.90 176.64 C 176.43 164.69 168.03 152.70 159.55 140.75 C 161.15 139.49 162.75 138.22 164.34 136.94 C 175.20 142.47 186.14 147.86 196.89 153.62 C 194.38 141.73 190.72 130.09 187.86 118.28 Z" />
<path fill="#020101" opacity="1.00" d=" M 428.37 691.98 C 434.36 691.06 440.35 690.12 446.35 689.22 C 446.34 689.99 446.33 691.53 446.32 692.30 C 442.04 692.38 437.46 691.50 433.46 693.47 C 433.04 697.07 434.43 700.89 434.75 704.58 C 438.08 704.04 441.41 703.52 444.76 703.09 C 444.80 703.51 444.88 704.34 444.92 704.76 C 441.61 705.25 438.30 705.76 435.00 706.27 C 435.65 710.63 436.34 714.99 436.99 719.36 C 441.55 718.21 446.08 716.90 450.70 715.93 C 450.70 716.67 450.70 718.15 450.70 718.88 C 444.75 719.80 438.82 720.80 432.86 721.57 C 431.43 711.70 429.84 701.85 428.37 691.98 Z" />
<path fill="#020101" opacity="1.00" d=" M 350.15 691.49 C 356.12 692.11 362.08 692.80 368.06 693.40 C 367.87 694.40 367.68 695.42 367.49 696.44 C 363.17 695.31 358.86 693.39 354.30 694.27 C 353.89 697.92 353.53 701.58 353.04 705.23 C 356.27 705.72 359.53 705.86 362.75 706.41 C 362.87 706.82 363.11 707.64 363.23 708.04 C 359.78 707.80 356.34 707.39 352.91 707.02 C 352.43 711.40 351.95 715.78 351.48 720.17 C 356.19 720.19 360.90 720.24 365.62 720.28 C 365.34 721.26 365.08 722.26 364.82 723.25 C 358.85 722.59 352.87 722.01 346.91 721.27 C 348.04 711.35 349.07 701.41 350.15 691.49 Z" />
</g>
<g id="#211f1fff">
<path fill="#211f1f" opacity="1.00" d=" M 365.62 115.87 C 390.59 113.95 415.88 114.65 440.53 119.32 C 486.93 127.80 530.92 148.66 567.03 178.98 C 595.30 202.54 618.67 231.87 635.73 264.47 C 656.84 305.15 667.25 351.22 666.20 397.01 C 665.44 434.85 656.61 472.45 640.68 506.77 C 608.15 577.07 544.79 632.45 470.50 654.63 C 424.18 668.73 374.13 670.27 327.02 659.07 C 287.41 649.69 249.89 631.43 218.24 605.80 C 188.82 582.26 164.38 552.59 146.70 519.33 C 125.95 479.96 114.53 435.52 114.95 390.95 C 114.51 362.88 119.04 334.82 127.37 308.05 C 149.22 237.27 201.21 176.67 267.49 143.73 C 298.09 128.43 331.55 118.96 365.62 115.87 M 362.54 120.79 C 326.65 124.50 291.55 135.58 259.97 153.02 C 229.43 169.71 202.31 192.51 180.28 219.42 C 156.35 248.81 138.64 283.24 128.74 319.81 C 117.21 362.49 116.38 408.00 126.24 451.09 C 136.34 495.61 158.19 537.32 188.61 571.31 C 212.52 598.20 241.95 620.11 274.41 635.60 C 312.76 653.94 355.52 662.89 398.01 661.74 C 439.19 660.49 480.24 650.09 516.57 630.53 C 576.75 598.99 624.36 544.15 646.60 479.89 C 662.59 434.58 665.99 384.98 656.63 337.86 C 642.80 265.97 597.89 200.95 536.10 161.87 C 485.10 129.06 422.82 114.48 362.54 120.79 Z" />
<path fill="#211f1f" opacity="1.00" d=" M 370.59 128.84 C 396.67 127.30 423.07 128.56 448.56 134.60 C 488.21 143.64 525.71 161.98 557.08 187.88 C 588.37 213.66 613.73 246.70 630.30 283.73 C 648.29 323.70 655.72 368.25 652.23 411.91 C 649.10 450.77 637.24 488.94 617.54 522.60 C 598.40 555.45 572.00 584.00 540.90 605.86 C 498.15 635.80 446.30 653.00 394.01 653.07 C 349.15 654.03 304.15 642.74 264.84 621.16 C 233.57 603.88 205.77 580.31 183.78 552.14 C 152.36 512.11 132.89 462.81 128.99 412.04 C 127.20 386.31 128.33 360.25 134.00 335.03 C 142.90 293.70 162.15 254.69 189.27 222.29 C 230.21 173.10 289.68 139.69 353.10 130.80 C 358.91 129.97 364.74 129.33 370.59 128.84 M 372.08 133.23 C 351.29 134.74 330.71 138.84 310.87 145.22 C 247.35 165.60 192.79 211.90 161.94 271.01 C 142.24 308.40 132.04 350.74 132.58 393.01 C 132.81 427.41 140.10 461.73 153.80 493.29 C 184.08 563.18 246.51 618.63 320.08 638.96 C 364.84 651.77 413.11 652.09 458.03 639.85 C 496.07 629.49 531.66 610.29 561.16 584.13 C 591.03 557.86 614.77 524.63 629.77 487.78 C 647.62 444.14 653.10 395.54 645.41 349.02 C 639.45 311.90 625.08 276.17 603.77 245.19 C 581.90 213.18 552.73 186.20 519.14 166.83 C 474.95 141.26 423.00 129.38 372.08 133.23 Z" />
</g>
<g id="#231f20ff">
<path fill="#231f20" opacity="1.00" d=" M 293.09 165.14 C 350.84 140.18 418.17 138.50 477.09 160.53 C 514.46 174.33 548.37 197.36 574.99 226.99 C 599.24 253.94 617.60 286.22 627.96 320.98 C 641.50 365.95 641.85 414.80 628.94 459.96 C 618.97 494.71 601.25 527.24 577.37 554.40 C 539.96 597.27 487.39 627.14 431.02 635.66 C 426.21 631.96 420.46 629.88 414.69 628.36 C 411.72 624.33 407.67 621.15 402.82 619.72 C 402.72 525.47 402.82 431.22 402.76 336.96 C 402.75 335.45 402.74 333.88 403.53 332.54 C 406.02 327.39 408.52 322.26 411.01 317.11 C 446.78 316.75 482.56 315.77 518.28 313.89 C 501.65 354.12 485.31 394.47 469.18 434.91 C 464.91 446.30 459.82 457.43 456.17 469.04 C 477.28 420.08 498.32 371.08 518.57 321.75 C 523.83 333.02 528.18 344.70 533.10 356.12 C 549.11 394.20 565.15 432.27 581.87 470.04 C 561.85 417.62 540.30 365.79 519.19 313.80 C 536.34 313.15 553.42 311.44 570.51 310.06 C 571.11 316.59 577.26 322.13 583.91 321.39 C 591.74 321.23 597.84 312.52 595.12 305.11 C 593.25 298.16 584.76 294.31 578.25 297.22 C 573.90 298.93 571.02 303.20 570.39 307.75 C 516.28 302.58 461.89 300.93 407.56 300.50 C 401.97 289.05 396.56 277.51 390.77 266.17 C 385.40 277.66 379.72 289.01 374.25 300.47 C 321.01 300.84 267.75 302.68 214.69 307.36 C 213.81 302.71 210.72 298.38 206.07 296.94 C 198.64 294.12 189.60 300.02 189.42 308.02 C 188.78 315.34 195.58 322.28 202.95 321.35 C 208.93 321.04 213.82 316.04 214.73 310.25 C 228.46 311.49 242.20 312.67 255.97 313.37 C 258.07 313.53 260.30 313.33 262.26 314.28 C 263.50 314.15 264.75 314.07 266.01 314.04 C 300.91 315.89 335.87 316.66 370.82 317.15 C 373.24 322.34 375.82 327.46 378.30 332.62 C 378.83 333.67 379.07 334.79 379.02 335.99 C 378.99 430.56 379.05 525.14 378.99 619.72 C 374.06 621.21 369.78 624.40 366.89 628.65 C 361.08 629.68 355.55 632.09 350.85 635.65 C 333.65 633.44 317.00 628.23 300.78 622.23 C 264.52 608.01 231.69 585.15 205.83 556.02 C 179.52 526.38 160.25 490.43 150.75 451.91 C 141.05 412.70 141.00 371.10 150.83 331.92 C 160.23 294.65 178.46 259.64 203.63 230.59 C 227.99 202.38 258.89 179.92 293.09 165.14 M 261.72 315.02 C 261.13 319.03 258.89 322.58 257.55 326.38 C 247.20 351.52 236.82 376.65 226.80 401.92 C 218.00 424.04 208.84 446.03 200.62 468.37 L 199.72 469.27 C 199.97 469.36 200.45 469.53 200.70 469.62 C 201.01 468.41 201.26 467.18 201.73 466.03 C 222.36 418.88 242.37 371.45 262.09 323.91 C 262.45 323.20 262.84 322.51 263.26 321.84 C 276.42 353.87 289.87 385.78 303.51 417.61 C 310.89 434.77 318.07 452.03 325.89 468.99 C 306.23 418.06 285.57 367.52 264.79 317.03 C 264.68 316.50 264.46 315.43 264.35 314.90 C 263.47 314.92 262.59 314.96 261.72 315.02 M 263.42 345.05 C 262.52 357.01 262.79 369.04 262.55 381.04 C 262.20 411.82 261.80 442.61 261.44 473.40 C 236.32 473.36 211.21 473.38 186.10 473.39 C 186.23 477.82 187.75 482.14 190.26 485.79 C 195.99 493.98 205.07 499.05 214.04 502.96 C 234.50 511.15 257.08 513.22 278.89 511.02 C 295.48 509.10 312.36 504.87 326.23 495.21 C 333.48 490.22 339.94 482.57 340.02 473.34 C 314.91 473.43 289.81 473.35 264.71 473.38 C 264.40 444.91 264.04 416.44 263.69 387.97 C 263.55 372.42 263.05 356.86 263.63 341.33 C 262.71 341.91 263.70 343.97 263.42 345.05 M 518.49 340.97 C 518.19 385.10 517.60 429.24 517.06 473.37 C 491.91 473.46 466.76 473.23 441.61 473.49 C 442.00 478.20 443.58 482.80 446.45 486.59 C 452.15 494.19 460.70 499.06 469.28 502.79 C 489.94 511.25 512.84 513.18 534.92 510.98 C 551.42 509.03 568.21 504.77 581.99 495.12 C 589.24 490.16 595.40 482.52 595.75 473.41 C 570.63 473.36 545.51 473.35 520.39 473.41 C 519.70 429.27 519.50 385.11 518.49 340.97 Z" />
<path fill="#231f20" opacity="1.00" d=" M 691.10 428.21 C 697.71 426.15 705.08 432.07 704.03 439.01 C 703.87 446.77 693.69 450.91 687.80 446.24 C 681.19 441.74 683.20 430.02 691.10 428.21 Z" />
<path fill="#231f20" opacity="1.00" d=" M 84.41 438.55 C 90.89 436.19 98.62 441.96 97.61 448.93 C 97.81 456.74 87.44 461.41 81.51 456.51 C 74.89 452.10 76.71 440.62 84.41 438.55 Z" />
</g>
<g id="#030302ff">
<path fill="#030302" opacity="1.00" d=" M 125.91 176.76 C 127.20 175.19 128.52 173.63 129.84 172.09 C 141.01 181.50 152.10 190.99 163.28 200.38 C 162.00 201.92 160.73 203.47 159.50 205.04 C 148.13 195.82 137.17 186.11 125.91 176.76 Z" />
<path fill="#030302" opacity="1.00" d=" M 109.07 566.46 C 117.46 561.01 125.88 555.60 134.32 550.21 C 135.12 551.44 135.92 552.69 136.73 553.93 C 128.97 558.89 121.25 563.92 113.48 568.87 C 114.48 573.20 118.16 575.90 120.83 579.18 C 119.91 579.57 118.99 579.96 118.08 580.36 C 115.03 575.76 112.12 571.07 109.07 566.46 Z" />
<path fill="#030302" opacity="1.00" d=" M 131.88 598.99 C 139.58 592.61 147.15 586.05 154.95 579.80 C 158.79 584.47 162.72 589.07 166.55 593.75 C 165.88 594.11 164.54 594.83 163.87 595.18 C 161.57 591.42 159.75 587.15 155.95 584.60 C 153.10 586.98 150.24 589.34 147.41 591.74 C 149.55 594.27 151.68 596.82 153.82 599.37 C 153.52 599.68 152.93 600.31 152.64 600.63 C 150.44 598.05 148.27 595.45 146.10 592.85 C 142.69 595.64 139.34 598.49 135.95 601.30 C 139.29 604.63 142.70 607.89 146.06 611.21 C 145.43 611.59 144.18 612.35 143.55 612.73 C 139.44 608.34 135.77 603.56 131.88 598.99 Z" />
<path fill="#030302" opacity="1.00" d=" M 392.79 694.76 C 396.95 692.70 401.76 693.67 406.03 694.84 C 405.92 695.59 405.70 697.09 405.59 697.83 C 402.16 696.64 398.62 695.37 394.94 695.51 C 392.53 696.76 392.19 700.15 393.74 702.22 C 397.36 707.03 404.52 707.66 407.56 713.05 C 409.77 717.12 407.16 722.46 402.90 723.84 C 398.47 725.30 393.52 724.69 389.24 723.04 C 389.14 722.54 388.94 721.53 388.85 721.02 C 392.50 722.38 396.61 724.06 400.47 722.39 C 403.73 721.05 404.82 716.28 402.32 713.75 C 398.71 709.87 392.53 709.26 389.71 704.52 C 387.67 701.09 389.37 696.53 392.79 694.76 Z" />
</g>
<g id="#020201ff">
<path fill="#020201" opacity="1.00" d=" M 604.82 186.57 C 619.92 182.07 634.98 177.43 650.07 172.93 C 650.66 172.87 651.83 172.76 652.42 172.70 C 645.26 187.57 638.25 202.54 630.70 217.22 C 629.23 215.39 627.73 213.60 626.19 211.84 C 628.09 207.98 630.08 204.15 632.01 200.29 C 627.73 195.32 623.51 190.30 619.21 185.34 C 615.13 186.70 611.03 188.01 606.95 189.38 C 606.22 188.44 605.52 187.51 604.82 186.57 M 621.85 184.43 C 625.56 188.98 629.46 193.37 633.24 197.87 C 636.79 191.01 640.36 184.16 643.90 177.29 C 636.54 179.66 629.21 182.10 621.85 184.43 Z" />
<path fill="#020201" opacity="1.00" d=" M 98.21 214.85 C 99.30 213.01 100.38 211.16 101.48 209.32 C 114.05 216.74 126.68 224.06 139.31 231.39 C 138.25 233.25 137.18 235.10 136.10 236.96 C 129.83 233.33 123.59 229.66 117.32 226.04 C 113.92 231.78 110.66 237.59 107.21 243.31 C 113.41 247.08 119.75 250.61 125.98 254.32 C 124.91 256.17 123.83 258.01 122.76 259.86 C 110.14 252.52 97.54 245.14 84.90 237.82 C 85.93 235.95 87.00 234.09 88.07 232.24 C 93.74 235.49 99.38 238.82 105.04 242.10 C 108.42 236.37 111.67 230.56 115.13 224.88 C 109.61 221.34 103.79 218.29 98.21 214.85 Z" />
<path fill="#020201" opacity="1.00" d=" M 645.85 239.99 C 658.70 233.02 671.52 225.97 684.42 219.09 C 687.92 226.54 693.79 233.45 693.85 242.05 C 693.99 247.18 688.81 251.31 683.86 250.65 C 680.61 250.32 677.93 248.26 675.52 246.22 C 676.84 250.55 677.41 255.69 674.58 259.56 C 671.42 263.79 664.94 264.17 660.80 261.19 C 653.15 256.38 650.25 247.40 645.85 239.99 M 669.80 234.29 C 671.81 237.77 673.36 241.89 676.95 244.09 C 681.72 246.92 688.97 243.84 689.64 238.16 C 690.82 233.38 687.12 229.65 684.21 226.44 C 679.41 229.07 674.60 231.67 669.80 234.29 M 651.37 244.49 C 653.28 249.09 655.49 254.34 660.51 256.27 C 665.62 258.61 671.77 254.34 672.26 248.95 C 673.29 243.93 670.47 239.38 668.11 235.20 C 662.55 238.34 656.79 241.12 651.37 244.49 Z" />
<path fill="#020201" opacity="1.00" d=" M 301.15 711.69 C 303.81 702.08 305.89 692.32 308.56 682.71 C 313.86 684.54 320.21 684.46 324.44 688.58 C 327.22 691.08 327.06 695.78 324.34 698.26 C 322.09 700.32 318.88 700.40 316.01 700.50 C 318.70 706.21 321.52 711.85 324.13 717.60 C 322.39 717.37 320.65 717.14 318.91 716.92 C 317.09 712.09 315.22 707.28 313.35 702.47 C 312.93 701.15 312.06 699.86 312.50 698.45 C 316.97 700.54 322.59 696.94 321.68 691.92 C 321.53 687.10 316.09 685.98 312.22 686.12 C 311.20 690.02 310.22 693.92 309.32 697.85 L 312.15 698.06 C 311.02 698.60 309.85 699.04 308.68 699.47 C 307.96 704.05 306.53 708.48 305.48 712.99 C 304.03 712.56 302.58 712.12 301.15 711.69 Z" />
</g>
<g id="#010000ff">
<path fill="#010000" opacity="1.00" d=" M 67.00 288.58 C 81.79 287.23 96.56 285.64 111.35 284.33 C 110.60 286.59 109.85 288.86 109.11 291.14 C 104.81 291.49 100.50 291.78 96.20 292.19 C 94.20 298.40 92.18 304.61 90.12 310.80 C 93.34 313.67 96.67 316.40 99.94 319.21 C 99.57 320.35 99.20 321.48 98.83 322.62 C 86.55 311.64 74.24 300.69 61.96 289.71 C 63.45 288.74 65.29 288.78 67.00 288.58 M 70.34 294.01 C 76.13 298.89 81.82 303.89 87.62 308.75 C 87.76 308.72 88.04 308.67 88.18 308.64 C 90.04 303.25 91.69 297.79 93.52 292.39 C 85.79 292.92 78.07 293.53 70.34 294.01 Z" />
</g>
<g id="#f9f7f8ff">
<path fill="#f9f7f8" opacity="1.00" d=" M 261.72 315.02 C 262.59 314.96 263.47 314.92 264.35 314.90 C 264.46 315.43 264.68 316.50 264.79 317.03 C 285.57 367.52 306.23 418.06 325.89 468.99 C 318.07 452.03 310.89 434.77 303.51 417.61 C 289.87 385.78 276.42 353.87 263.26 321.84 C 262.84 322.51 262.45 323.20 262.09 323.91 C 242.37 371.45 222.36 418.88 201.73 466.03 C 201.26 467.18 201.01 468.41 200.70 469.62 C 200.45 469.53 199.97 469.36 199.72 469.27 L 200.62 468.37 C 208.84 446.03 218.00 424.04 226.80 401.92 C 236.82 376.65 247.20 351.52 257.55 326.38 C 258.89 322.58 261.13 319.03 261.72 315.02 Z" />
</g>
<g id="#010100ff">
<path fill="#010100" opacity="1.00" d=" M 683.75 335.27 C 698.20 333.14 712.66 331.01 727.11 328.84 C 728.27 337.99 731.16 347.64 727.41 356.59 C 722.71 370.40 701.82 375.14 692.12 363.95 C 685.11 356.12 685.59 344.99 683.75 335.27 M 687.49 341.23 C 687.17 347.91 688.89 355.38 694.42 359.69 C 699.64 363.84 706.95 363.74 713.11 362.11 C 720.43 360.16 726.25 353.55 727.11 346.01 C 726.95 342.45 725.71 339.05 724.35 335.80 C 712.07 337.65 699.79 339.52 687.49 341.23 Z" />
<path fill="#010100" opacity="1.00" d=" M 51.02 338.37 C 52.50 338.54 53.97 338.71 55.45 338.90 C 53.78 345.18 50.67 351.43 52.05 358.11 C 57.40 358.78 62.75 359.42 68.09 360.12 C 68.66 355.48 69.28 350.85 69.78 346.20 C 70.42 346.27 71.70 346.41 72.33 346.48 C 71.73 351.13 71.16 355.77 70.59 360.42 C 77.78 361.28 84.96 362.21 92.14 363.08 C 91.88 365.21 91.62 367.33 91.36 369.46 C 76.86 367.66 62.35 365.85 47.85 364.05 C 48.91 355.49 50.01 346.94 51.02 338.37 Z" />
</g>
<g id="#ffffffff">
<path fill="#ffffff" opacity="1.00" d=" M 263.42 345.05 C 263.70 343.97 262.71 341.91 263.63 341.33 C 263.05 356.86 263.55 372.42 263.69 387.97 C 264.04 416.44 264.40 444.91 264.71 473.38 C 289.81 473.35 314.91 473.43 340.02 473.34 C 339.94 482.57 333.48 490.22 326.23 495.21 C 312.36 504.87 295.48 509.10 278.89 511.02 C 257.08 513.22 234.50 511.15 214.04 502.96 C 205.07 499.05 195.99 493.98 190.26 485.79 C 187.75 482.14 186.23 477.82 186.10 473.39 C 211.21 473.38 236.32 473.36 261.44 473.40 C 261.80 442.61 262.20 411.82 262.55 381.04 C 262.79 369.04 262.52 357.01 263.42 345.05 Z" />
<path fill="#ffffff" opacity="1.00" d=" M 518.49 340.97 C 519.50 385.11 519.70 429.27 520.39 473.41 C 545.51 473.35 570.63 473.36 595.75 473.41 C 595.40 482.52 589.24 490.16 581.99 495.12 C 568.21 504.77 551.42 509.03 534.92 510.98 C 512.84 513.18 489.94 511.25 469.28 502.79 C 460.70 499.06 452.15 494.19 446.45 486.59 C 443.58 482.80 442.00 478.20 441.61 473.49 C 466.76 473.23 491.91 473.46 517.06 473.37 C 517.60 429.24 518.19 385.10 518.49 340.97 Z" />
</g>
<g id="#030202ff">
<path fill="#030202" opacity="1.00" d=" M 647.42 554.54 C 650.61 552.54 655.07 553.93 656.77 557.21 C 658.32 560.07 657.15 563.37 656.34 566.26 C 662.60 565.51 668.87 564.88 675.14 564.18 C 674.34 565.74 673.59 567.34 672.82 568.92 C 667.23 569.10 661.63 569.23 656.05 569.43 C 654.18 569.03 653.56 571.17 652.50 572.20 C 656.39 575.02 660.48 577.57 664.53 580.17 C 663.74 581.45 662.92 582.71 662.15 583.99 C 653.79 578.48 645.41 572.99 637.06 567.45 C 640.38 563.08 642.46 557.37 647.42 554.54 M 644.96 559.01 C 643.16 560.58 642.50 563.01 641.50 565.10 C 644.81 567.26 648.14 569.40 651.39 571.65 C 653.15 569.05 655.39 566.28 655.07 562.94 C 654.35 558.57 648.45 556.27 644.96 559.01 Z" />
<path fill="#030202" opacity="1.00" d=" M 164.70 629.92 C 163.46 620.29 173.64 611.60 182.98 613.71 C 189.24 614.70 194.24 619.29 197.30 624.64 C 196.71 625.13 195.53 626.11 194.94 626.61 C 192.71 622.79 190.83 617.52 185.87 616.70 C 177.63 614.77 169.54 621.99 168.29 629.88 C 167.52 635.41 171.50 640.07 175.91 642.81 C 178.48 639.95 181.07 637.12 183.63 634.26 C 184.72 635.21 185.82 636.16 186.92 637.13 C 184.31 640.17 181.54 643.08 178.90 646.09 C 172.21 643.11 165.83 637.51 164.70 629.92 Z" />
<path fill="#030202" opacity="1.00" d=" M 550.20 651.24 C 552.94 645.73 558.48 642.33 564.23 640.65 C 564.60 641.36 565.33 642.79 565.69 643.51 C 561.29 644.39 555.88 645.19 553.61 649.62 C 549.73 656.46 553.97 665.10 559.97 669.16 C 566.73 673.49 575.84 668.84 578.94 662.11 C 579.58 663.11 580.60 664.44 579.16 665.38 C 574.77 670.12 568.62 674.02 561.93 673.67 C 551.64 673.25 545.06 659.93 550.20 651.24 Z" />
<path fill="#030202" opacity="1.00" d=" M 507.01 671.23 C 512.27 669.30 517.15 665.39 523.00 665.85 C 526.97 666.03 530.00 670.25 528.98 674.07 C 528.26 676.82 525.92 678.66 524.02 680.60 C 529.75 683.10 535.27 686.04 540.96 688.64 C 539.46 689.63 537.93 690.57 536.37 691.48 C 531.29 688.27 525.97 685.45 520.87 682.26 C 519.75 682.72 518.63 683.19 517.52 683.68 C 519.52 688.01 521.53 692.34 523.47 696.71 C 522.18 697.32 520.90 697.95 519.63 698.59 C 515.18 689.58 511.20 680.35 507.01 671.23 M 517.37 668.46 C 515.47 669.17 513.82 670.38 512.09 671.42 C 513.49 675.20 515.37 678.78 516.99 682.47 C 519.85 681.10 523.32 679.92 524.72 676.79 C 526.37 672.48 521.93 667.21 517.37 668.46 Z" />
</g>
<g id="#040303ff">
<path fill="#040303" opacity="1.00" d=" M 624.25 584.12 C 624.88 584.92 625.52 585.73 626.17 586.55 C 622.75 589.36 618.75 591.81 616.86 596.01 C 619.64 598.42 622.41 600.84 625.15 603.30 C 627.13 601.20 628.96 598.98 630.87 596.83 C 631.35 595.55 633.95 596.11 632.55 597.52 C 630.65 599.96 628.39 602.11 626.55 604.60 C 629.97 607.32 633.13 610.35 636.49 613.14 C 639.25 609.34 641.85 605.41 644.77 601.72 C 645.24 602.29 646.18 603.45 646.66 604.02 C 642.71 608.54 638.74 613.04 634.82 617.57 C 627.29 610.98 619.76 604.38 612.22 597.80 C 616.24 593.25 620.18 588.63 624.25 584.12 Z" />
<path fill="#040303" opacity="1.00" d=" M 476.24 680.74 C 483.96 689.10 491.00 698.09 498.43 706.72 C 496.77 707.17 495.11 707.60 493.43 707.97 C 491.73 705.65 489.91 703.43 488.08 701.22 C 483.78 702.48 479.48 703.76 475.18 705.04 C 474.88 707.93 474.58 710.83 474.33 713.74 C 473.74 713.93 472.54 714.30 471.95 714.49 C 472.90 706.35 474.06 698.24 474.94 690.09 C 474.86 688.92 476.16 689.34 476.87 689.38 C 476.29 693.96 475.80 698.56 475.39 703.17 C 479.22 702.03 483.06 700.92 486.88 699.76 C 483.82 695.82 480.52 692.05 477.66 687.95 L 476.70 689.09 C 475.16 686.51 475.72 683.51 476.24 680.74 Z" />
</g>
<g id="#030303ff">
<path fill="#030303" opacity="1.00" d=" M 593.56 616.17 C 594.67 615.25 595.78 614.33 596.90 613.42 C 603.44 620.97 609.95 628.55 616.52 636.09 C 615.39 637.05 614.27 638.01 613.16 638.98 C 609.96 635.24 606.67 631.56 603.53 627.76 C 599.97 630.65 596.57 633.74 593.08 636.72 C 596.31 640.45 599.53 644.20 602.77 647.93 C 601.69 648.89 600.63 649.86 599.57 650.84 C 592.90 643.35 586.38 635.72 579.85 628.10 C 580.95 627.16 582.05 626.20 583.16 625.27 C 586.10 628.63 589.00 632.03 591.94 635.39 C 595.37 632.47 598.71 629.45 602.22 626.62 C 599.60 622.92 596.30 619.77 593.56 616.17 Z" />
<path fill="#030303" opacity="1.00" d=" M 237.86 686.65 C 242.02 677.57 246.78 668.78 251.04 659.75 C 252.37 660.30 253.67 660.95 255.02 661.52 C 251.30 670.05 246.58 678.12 242.88 686.66 C 246.13 689.45 250.42 690.21 254.40 691.42 C 253.82 692.24 253.24 693.08 252.67 693.92 C 247.70 691.55 242.82 689.02 237.86 686.65 Z" />
</g>
<g id="#020102ff">
<path fill="#020102" opacity="1.00" d=" M 195.26 660.72 C 204.68 654.23 214.42 648.16 224.20 642.23 C 222.44 653.43 220.22 664.56 218.30 675.73 C 216.93 674.82 215.56 673.91 214.19 673.01 C 214.77 670.10 215.35 667.20 215.90 664.30 C 212.20 661.84 208.49 659.41 204.85 656.87 C 202.35 658.29 200.09 660.07 197.62 661.55 C 197.03 661.34 195.85 660.93 195.26 660.72 M 206.28 655.87 C 209.66 657.97 212.91 660.28 216.25 662.44 C 217.38 657.30 218.38 652.13 219.48 646.99 C 215.09 649.96 210.59 652.78 206.28 655.87 Z" />
</g>
</svg>
